<?xml version="1.0" encoding="utf-8"?>
<!-- Generator: Adobe Illustrator 16.0.0, SVG Export Plug-In . SVG Version: 6.00 Build 0)  -->
<!DOCTYPE svg PUBLIC "-//W3C//DTD SVG 1.1//EN" "http://www.w3.org/Graphics/SVG/1.1/DTD/svg11.dtd">
<svg version="1.1" id="Capa_1" xmlns="http://www.w3.org/2000/svg" xmlns:xlink="http://www.w3.org/1999/xlink" x="0px" y="0px"
	 width="960px" height="960px" viewBox="0 0 960 960" enable-background="new 0 0 960 960" xml:space="preserve">
<path fill="#FF9F00" d="M161.235,831.858c-3.574,0-6.97-2.104-8.444-5.606l-18.915-44.979c-1.959-4.659,0.229-10.027,4.888-11.986
	c13.872-5.836,23.561-17.497,27.414-30.947h-50.562c-5.053,0-9.153-4.101-9.153-9.153v-48.796c0-0.32,0.014-0.637,0.05-0.943
	c-1.611,0.48-3.213,1.058-4.796,1.726c-2.243,0.938-4.764,0.952-7.007,0.037c-2.247-0.92-4.041-2.691-4.979-4.93l-25.94-61.692
	c-1.958-4.664,0.229-10.027,4.888-11.986c24.293-10.216,35.749-38.293,25.529-62.586c-4.947-11.767-14.183-20.906-26.004-25.726
	c-11.822-4.823-24.81-4.755-36.581,0.197c-2.243,0.938-4.765,0.952-7.007,0.036c-2.247-0.92-4.042-2.69-4.979-4.929L0.719,464.615
	c-1.959-4.663,0.229-10.027,4.888-11.986l128.517-54.045c-5.817-2.467-12.101-3.762-18.508-3.762c-5.053,0-9.153-4.101-9.153-9.153
	v-48.787c0-5.053,4.101-9.153,9.153-9.153h187.02L775.529,128.86c4.664-1.963,10.027,0.229,11.986,4.888l18.915,44.979
	c0.943,2.238,0.952,4.759,0.037,7.006c-0.92,2.248-2.691,4.042-4.93,4.979c-24.297,10.215-35.748,38.293-25.532,62.586
	c4.947,11.766,14.183,20.906,26.004,25.729s24.814,4.75,36.581-0.197c2.238-0.943,4.76-0.952,7.007-0.037
	c2.247,0.92,4.041,2.691,4.979,4.929l18.503,44.009h81.758c5.053,0,9.153,4.101,9.153,9.153v48.787c0,5.052-4.101,9.153-9.153,9.153
	c-26.353,0-47.794,21.441-47.794,47.793c0,1.593,0.087,3.19,0.251,4.792c1.817-0.526,3.616-1.158,5.387-1.904
	c2.238-0.938,4.76-0.951,7.008-0.036c2.247,0.92,4.041,2.69,4.979,4.929l15.913,37.84c4.604,1.446,9.383,2.179,14.257,2.179
	c5.053,0,9.153,4.101,9.153,9.153v66.929c0,5.053-4.101,9.153-9.153,9.153c-26.353,0-47.794,21.441-47.794,47.793
	c0,26.353,21.441,47.794,47.794,47.794c5.053,0,9.153,4.101,9.153,9.153v48.797c0,5.052-4.101,9.152-9.153,9.152h-565.38
	l-220.681,92.801C163.619,831.63,162.416,831.858,161.235,831.858z M154.059,782.033l12.064,28.687l213.481-89.775
	c0.142-0.069,0.284-0.133,0.431-0.192l539.132-226.718l-12.055-28.668c-2.925,0.782-5.881,1.359-8.855,1.729
	c-0.366,0.088-0.741,0.156-1.121,0.197c-28.971,3.281-57.048-13.189-68.339-40.041c-12.924-30.736-0.769-65.849,27.117-82.425
	l-1.85-4.394c-0.385-0.916-0.613-1.876-0.687-2.842l-16.366-38.915c-31.345,8.334-64.946-7.538-77.876-38.274
	c-12.929-30.736-0.769-65.849,27.117-82.425l-12.064-28.691L21.14,465.961l12.059,28.682c13.835-3.702,28.421-2.801,41.913,2.7
	c16.348,6.669,29.121,19.305,35.963,35.579c12.924,30.736,0.769,65.849-27.117,82.426l19.336,45.98
	c31.359-8.334,64.947,7.538,77.876,38.275C194.1,730.34,181.944,765.456,154.059,782.033z M428.991,720.033h512.702v-31.121
	c-32.133-4.472-56.947-32.128-56.947-65.469c0-33.346,24.814-61.002,56.947-65.469v-49.886c-2.055-0.288-4.092-0.668-6.109-1.148
	c-0.284,0.155-0.577,0.298-0.879,0.426l-92.16,38.755v138.37c0,5.053-4.101,9.153-9.153,9.153H492.794
	c-0.315,0-0.632-0.014-0.938-0.046L428.991,720.033z M124.768,720.033h42.513c-0.495-4.521-1.634-8.925-3.419-13.158
	c-4.174-9.927-11.524-18.055-20.924-23.235c-5.767,2.613-11.895,4.39-18.174,5.268v31.126H124.768z M535.274,675.338h288.964
	v-121.52l-60.292,25.355v50.549c0,5.053-4.101,9.153-9.153,9.153s-9.153-4.101-9.153-9.153v-42.852l-80.137,33.698h18.302
	c5.053,0,9.153,4.101,9.153,9.153s-4.101,9.153-9.153,9.153H621.97L535.274,675.338z M876.76,346.035
	c1.524,4.503-0.668,9.492-5.125,11.364c-11.767,4.947-20.906,14.183-25.73,26.004c-4.819,11.821-4.75,24.81,0.197,36.576l0,0
	c4.947,11.771,14.183,20.906,26.004,25.73c4.201,1.716,8.559,2.81,12.952,3.29c-0.21-2.128-0.32-4.256-0.32-6.375
	c0-33.346,24.814-61.002,56.947-65.469v-31.121H876.76z M124.768,377.161c10.993,1.547,21.442,5.858,30.394,12.572l103.908-43.698
	H124.768V377.161z M252.177,745.127c-1.176,0-2.348-0.225-3.456-0.678c-2.247-0.92-4.041-2.69-4.979-4.929L126.315,460.291
	c-1.959-4.659,0.229-10.027,4.888-11.986l553.384-232.713c4.664-1.959,10.027,0.229,11.986,4.888l117.428,279.234
	c0.942,2.238,0.952,4.76,0.036,7.007c-0.92,2.247-2.69,4.041-4.929,4.979L255.724,744.413
	C254.589,744.889,253.381,745.127,252.177,745.127z M146.741,461.632l110.324,262.355l536.51-225.614L683.246,236.017
	L146.741,461.632z M303.404,664.176c-3.575,0-6.97-2.105-8.444-5.606l-71.414-169.825l-29.291,12.315
	c-4.664,1.959-10.027-0.229-11.986-4.888c-1.958-4.664,0.229-10.027,4.888-11.986l37.693-15.849c0.023-0.01,0.05-0.019,0.073-0.032
	l37.693-15.85c4.668-1.958,10.027,0.229,11.986,4.889c1.959,4.658-0.229,10.027-4.888,11.986l-29.291,12.315l71.414,169.825
	c1.959,4.659-0.229,10.027-4.888,11.986C305.788,663.946,304.584,664.176,303.404,664.176z M370.662,635.892
	c-3.574,0-6.971-2.105-8.444-5.606l-74.965-178.265c-1.958-4.663,0.229-10.027,4.888-11.986c4.668-1.959,10.027,0.233,11.986,4.888
	l74.965,178.265c1.959,4.659-0.229,10.027-4.888,11.986C373.046,635.663,371.848,635.892,370.662,635.892z M406.209,620.944
	c-0.509,0-1.017-0.041-1.516-0.128c-2.389-0.398-4.576-1.744-6.009-3.799c-0.343-0.499-0.646-1.039-0.897-1.62
	c0-0.005-0.004-0.009-0.004-0.014s0-0.005-0.005-0.009c-0.005-0.014-0.009-0.023-0.014-0.037L322.8,437.073
	c-1.959-4.659,0.229-10.027,4.888-11.986c0.009-0.004,0.018-0.004,0.027-0.009l57.024-23.981c2.238-0.943,4.76-0.952,7.007-0.037
	c2.247,0.92,4.041,2.691,4.979,4.93l11.968,28.457c1.959,4.664-0.229,10.027-4.888,11.986c-4.663,1.959-10.027-0.233-11.986-4.888
	l-8.416-20.022l-40.179,16.896l67.867,161.386l40.179-16.893l-6.865-16.324c-1.959-4.664,0.229-10.027,4.888-11.986
	c4.668-1.959,10.027,0.233,11.986,4.888l10.412,24.765c1.959,4.663-0.229,10.027-4.888,11.985l-57.053,23.991
	C408.593,620.716,407.39,620.944,406.209,620.944z M494.611,583.773c-3.575,0-6.971-2.105-8.444-5.606l-74.966-178.265
	c-1.958-4.659,0.229-10.028,4.889-11.987c4.673-1.963,10.027,0.229,11.986,4.888l25.936,61.684l17.162-85.386
	c0.993-4.957,5.821-8.165,10.778-7.171c4.956,0.998,8.165,5.821,7.171,10.778l-21.807,108.49l92.781,60.297
	c4.238,2.755,5.442,8.421,2.687,12.663c-2.75,4.238-8.425,5.442-12.663,2.687l-73.029-47.455l25.94,61.684
	c1.959,4.659-0.229,10.028-4.888,11.986C496.995,583.539,495.792,583.773,494.611,583.773z M589.394,543.91
	c-0.518,0-1.03-0.046-1.533-0.128c-2.984-0.508-5.648-2.48-6.911-5.479l-37.446-89.047c-0.009-0.028-0.022-0.056-0.036-0.083
	c-0.01-0.027-0.023-0.055-0.032-0.087l-37.451-89.047c-0.329-0.783-0.54-1.588-0.645-2.389c-0.509-3.977,1.656-7.968,5.533-9.597
	c0.009-0.004,0.018-0.004,0.027-0.009l57.021-23.981c4.668-1.959,10.027,0.233,11.985,4.888c1.959,4.659-0.229,10.028-4.888,11.986
	l-48.613,20.444l30.385,72.256l48.613-20.444c4.673-1.963,10.022,0.229,11.986,4.888c1.958,4.659-0.229,10.027-4.888,11.986
	l-48.613,20.444l30.384,72.256l48.613-20.444c4.664-1.958,10.027,0.233,11.986,4.889c1.959,4.658-0.229,10.027-4.888,11.985
	l-57.053,23.991C591.777,543.682,590.574,543.91,589.394,543.91z M711.882,492.4c-3.574,0-6.97-2.105-8.443-5.606l-71.414-169.825
	l-29.29,12.32c-4.669,1.963-10.027-0.229-11.986-4.888c-1.959-4.664,0.229-10.027,4.888-11.986l75.459-31.734
	c4.669-1.959,10.028,0.229,11.986,4.888c1.959,4.659-0.229,10.027-4.888,11.986l-29.29,12.315l71.414,169.825
	c1.958,4.664-0.229,10.027-4.888,11.986C714.267,492.172,713.062,492.4,711.882,492.4z"/>
</svg>
