<?xml version="1.0" encoding="utf-8"?>
<!-- Generator: Adobe Illustrator 16.0.0, SVG Export Plug-In . SVG Version: 6.00 Build 0)  -->
<!DOCTYPE svg PUBLIC "-//W3C//DTD SVG 1.1//EN" "http://www.w3.org/Graphics/SVG/1.1/DTD/svg11.dtd">
<svg version="1.1" id="Capa_1" xmlns="http://www.w3.org/2000/svg" xmlns:xlink="http://www.w3.org/1999/xlink" x="0px" y="0px"
	 width="960px" height="560px" viewBox="0 0 960 560" enable-background="new 0 0 960 560" xml:space="preserve">
<g>
	<path fill="#913242" d="M314.725,305.623c0.212,0.102,0.526,0.301,0.851,0.427l0.112,0.125c0.338,0.249,0.558,0.299,0.896,0.537
		l0.112,0.112c0.218,0.087,0.425,0.2,0.637,0.425h0.107c0.231,0.238,0.576,0.45,0.782,0.665h0.094
		c0.237,0.236,0.462,0.438,0.675,0.662h0.106c0.212,0.226,0.332,0.438,0.538,0.626h0.106c0.107,0.226,0.338,0.475,0.562,0.7
		l0.101,0.102c0.119,0.187,0.356,0.424,0.444,0.649h0.119c0.106,0.226,0.219,0.425,0.426,0.648l0.125,0.227
		c0.087,0.2,0.187,0.427,0.312,0.65l0.112,0.101c0.113,0.237,0.194,0.438,0.325,0.651c0.112,0.35,0.245,0.575,0.313,0.774
		l0.106,0.251c0.137,0.2,0.263,0.398,0.263,0.649l0.081,0.101c0,0.238,0.125,0.427,0.23,0.639v0.238
		c0.107,0.225,0.107,0.424,0.213,0.649v0.2c0.119,0.227,0.119,0.551,0.119,0.775h0.1v0.112c0,0.213,0,0.464,0.119,0.676v0.213v0.751
		l0.125,0.199v0.774v0.126v0.738v0.238v0.773v0.201l-0.125,0.7v0.175c0,0.353,0,0.551-0.119,0.901v0.201c0,0.225,0,0.411-0.1,0.774
		v0.324l-0.119,0.551l-0.106,0.301l-0.107,0.775l-0.106,0.363l-0.125,0.626v0.111l-0.081,0.199l-0.126,0.576l-0.137,0.438
		l-0.175,0.752l-0.132,0.225l-0.112,0.663l-0.212,0.426l-0.225,0.639l-0.125,0.337v0.101l-0.187,0.701l-0.232,0.45l-0.1,0.388
		l-0.112,0.312l-0.225,0.677l-0.219,0.55l-0.106,0.2c-0.326,0.602-0.558,1.226-0.783,1.776l-0.312,0.551
		c-0.12,0.427-0.332,0.877-0.544,1.302l-0.22,0.537h-0.112c-4.067,8.421-9.427,16.078-12.381,20.132
		c-3.303,4.255-8.414,8.857-8.877,14.29c-2.158,0.273-4.072,1.338-6.031,2.676c-0.65,0.427-1.438,1.003-2.071,1.527l-0.1,0.102
		l-0.688,0.523l-0.093,0.126l-0.543,0.399l-0.326,0.4l-0.444,0.375l-0.219,0.238l-0.55,0.539l-0.225,0.249l-0.639,0.626l-0.125,0.1
		l-0.651,0.701l-0.113,0.199l-0.45,0.427l-0.419,0.438l-0.338,0.464l-0.426,0.425l-0.312,0.438l-0.457,0.552l-0.338,0.462
		l-0.431,0.4l-0.432,0.55l-0.232,0.453l-0.532,0.637l-0.25,0.352l-0.414,0.662l-0.337,0.302l-0.432,0.639l-0.225,0.461l-0.556,0.665
		l-0.207,0.312l-0.445,0.676l-0.318,0.526l-0.344,0.676l-0.332,0.351l-0.307,0.699l-0.325,0.45l-0.332,0.676l-0.338,0.552
		l-0.331,0.552l-0.32,0.55l-0.331,0.648l-0.338,0.553l-0.307,0.626l-0.244,0.587l-0.312,0.639l-0.226,0.425l-0.337,0.803
		l-0.326,0.513l-0.213,0.537l-0.318,0.65l-0.226,0.677l-0.331,0.55l-0.22,0.663l-0.219,0.676l-0.213,0.513l-0.225,0.626
		l-0.212,0.576l-0.244,0.649l-0.225,0.651l-0.194,0.562l-0.207,0.639l-0.113,0.55l-0.225,0.676l-0.212,0.626l-0.12,0.588
		l-0.212,0.765l-0.126,0.525l-0.1,0.676l-0.225,0.523l-0.118,0.701l-0.088,0.524l-0.15,0.639l-0.094,0.663v0.539l-0.1,0.626
		c0,0.262,0,0.474-0.1,0.699v0.514l-0.107,0.701v0.525v0.649v0.463v0.626v0.663v0.45v0.648v0.677l0.107,0.427v0.749l0.1,0.45
		c0,0.215,0.1,0.427,0.1,0.628l0.094,0.475c0,0.212,0,0.427,0.15,0.64l0.088,0.438c0,0.227,0.118,0.464,0.118,0.649
		c0,0.102,0.107,0.352,0.107,0.45c0.118,0.215,0.118,0.276,0.218,0.539c0,0.237,0.126,0.338,0.126,0.537
		c0.081,0.112,0.081,0.326,0.212,0.575c0.12,0.126,0.12,0.302,0.233,0.401c0.1,0.251,0.218,0.6,0.325,0.788v0.2
		c0.212,0.336,0.319,0.688,0.438,0.862l0.076,0.149c0.125,0.301,0.338,0.65,0.563,0.977h0.118h0.094
		c0-0.126,0.131-0.126,0.131-0.126h0.113l0.101-0.112h0.112l0.106-0.087h0.119l0.101-0.126l0.225-0.1v-0.125h0.106l0.1-0.101
		l0.226-0.2c0.101-0.149,0.326-0.325,0.432-0.462l0.119-0.215l0.094-0.1l0.113-0.236h0.118l0.119-0.313h0.101l0.105-0.226v-0.1
		l0.12-0.1l0.105-0.251l0.207-0.2v-0.075l0.112-0.126l0.131-0.249l0.207-0.439h0.101l0.113-0.187v-0.112l0.119-0.125l0.106-0.325
		l0.213-0.214v-0.1l0.118-0.126l0.1-0.288h0.101l0.119-0.249l0.106-0.226l0.119-0.312l0.106-0.126l0.119-0.112l0.1-0.212v-0.102
		l0.119-0.227l0.056-0.1l0.157-0.1l0.118-0.375l0.207-0.201l0.118-0.212v-0.113l0.101-0.237l0.106-0.062l0.101-0.251l0.125-0.199
		l0.207-0.352l0.119-0.1v-0.1l0.225-0.338l0.113-0.238l0.112-0.199l0.093-0.112l0.12-0.215l0.105-0.1l0.107-0.149l0.219-0.312
		l0.101-0.188l0.125-0.226l0.213-0.326h0.105l0.232-0.349v-0.113h0.105c0.225-0.313,0.326-0.539,0.539-0.764
		c2.521-2.941,5.612-4.905,9.647-3.578c13.138,4.729,3.072,20.53-7.327,21.944l-0.895,0.125h-0.65l-0.545,0.14h-0.131h-0.538h-0.438
		l-0.105,0.05h-0.438h-0.219h-0.107c-1.094,0-2.126,0-3.071-0.05h-0.431l-0.438-0.14h-0.45v-0.125h-0.432
		c-0.443-0.1-0.875-0.174-1.3-0.3l-0.452-0.15c-0.982-0.3-1.857-0.726-2.734-1.275v-0.075c-0.212-0.148-0.438-0.249-0.663-0.375
		v-0.087c-0.207-0.125-0.356-0.238-0.55-0.439l-0.301-0.235l-0.244-0.237v-0.076c-0.219-0.126-0.438-0.351-0.538-0.575l-0.225-0.174
		h-0.131c-0.088-0.226-0.294-0.477-0.413-0.676l-0.213-0.215v-0.112l-0.225-0.351l-0.237-0.325h-0.094l-0.107-0.324l-0.1-0.1
		l-0.118-0.251h-0.094l-0.139-0.176v-0.138l-0.1-0.214l-0.112-0.1l-0.094-0.101l-0.125-0.251v-0.199l-0.226-0.226v-0.1l-0.219-0.352
		v-0.1l-0.219-0.176v-0.251l-0.212-0.212v-0.126l-0.1-0.312l-0.12-0.101v-0.237l-0.218-0.263l-0.107-0.276l-0.113-0.1l-0.106-0.414
		v-0.123l-0.232-0.353l-0.1-0.312l-0.107-0.126v-0.112l-0.237-0.427v-0.112l-0.207-0.325v-0.111l-0.113-0.438l-0.106-0.112
		l-0.107-0.414l-0.244-0.562l-0.199-0.537l-0.225-0.576l-0.201-0.525c-6.693-23.648,20.608-47.809,20.915-55.564
		c5.361,0.424,58.169-51.501,31.349-60.247c-21.696,22.646-43.392,45.594-64.744,69.667c-10.973,7.521-32.23,9.285-48.215,0.963
		l-22.441,23.737c3.722,2.952,7.552,5.78,11.268,8.406l26.062-27.325l2.159,0.288l-26.351,28.265
		c4.93,3.277,9.754,5.905,14.251,7.733c-25.093,10.297-94.548,61.708-106.603,70.667c67.803,61.146,169.47,68.642,222.471,23.599
		c54.459-46.231,66.84-65.264,109.676-109.131c-0.113-24.498-0.226-56.969-0.226-90.648c-0.995,9.081-6.694,29.539-15.452,17.629
		c-32.175-43.854-91.358,29.076-102.105,73.471c-4.593,19.469,0.789,36.098,23.885,40.915c11.849,3.803,7.22,16.04-0.644,15.739
		c-9.972-0.325-40,20.721-43.391,64.538c-5.793,2.477-9.291,3.565-11.831,4.354c8.658-32.057,23.892-69.104,38.663-77.451
		c-52.451-52.55,47.877-186.412,100.572-136.894c7.458,7.019,5.594-19.689,10.305-41.754v-91.325
		C389.873,220.753,363.473,254.549,314.725,305.623 M174.728,401.441L174.728,401.441l22.121-23.322
		c-3.709-2.189-11.036-9.461-12.28-13.163l-23.204,24.424C165.637,393.533,170.123,397.587,174.728,401.441 M159.818,387.829
		L159.818,387.829l23.329-24.699c0,0-2.734-5.456-4.366-10.16c-1.22-3.718-2.296-9.186-2.296-9.186l-29.366,30.605
		C150.961,378.795,155.221,383.249,159.818,387.829 M145.812,372.751L145.812,372.751l30.673-31.918
		c-0.219-3.255-0.125-6.657,0.312-9.836c1.527-10.684,5.137-18.167,11.167-26.073c5.918-7.516,35.509-37.887,54.878-58.257
		c-10.718-26.032-58.477,30.648-57.594,35.858c-7.794,1.007-29.815,29.991-54.014,25.174c-12.174-3.729-18.418-5.904-17.555-20.645
		c0.67-10.429,15.672-21.702,21.359-8.997c4.411,10.584-15.203,15.766-15.203,20.344c21.14,10.484,58.488-19.03,58.814-32.256
		c4.598-0.412,7.676-3.821,10.517-7.026c0.769-0.744,2.089-1.833,3.072-2.713c9.747-8.316,40.864-33.552,53.438-12.614
		c8.358-8.702,14.146-15.033,14.47-15.934c0.343-1.294,0.1-3.578-0.1-10.373V97.078c-8.759,23.735-10.085,31.618-31.431,43.422
		c31.431,20.878-0.568,57.932-13.256,72.646c-21.915,22.159-89.062,79.32-118.208,34.628c-4.704,23.397-40.089,31.73-60.265,39.681
		c0.125-2.062,2.439-10.922,3.184-12.462c10.198-5.104,33.308-10.692,42.522-22.416c10.292-13.895-3.184-18.042,17.743-20.857
		c4.711-0.676,6.562,9.61,14.789,16.054c22.248,17.372,61.454-10.505,86.86-36.21c11.511-11.605,39.981-42.773,22.591-58.589
		c-3.197-2.865-5.08-2.747-10.411-4.816c-5.055-1.858-2.965-11.938,1.395-15.434c23.798,0.975,33.088-36.173,44.487-56.675V8.173
		C222.36,42.713,106.248,171.212,73.492,208.956c-2.966,3.47-42.835,47.227-43.611,117.763
		c-0.438,43.092,9.108,79.714,25.092,109.933c-4.159-8.223-7.783-16.74-10.517-23.748c-4.929-12.362-12.267-40.452-12.267-53.152
		c36.26,33.021,61.903,78.314,34.727,96.543c4.398,6.558,9.203,12.714,14.352,18.532c14.783-19.619,47.434-76.925,55.204-113.887
		C138.999,364.555,142.17,368.509,145.812,372.751 M243.726,245.797L243.726,245.797l1.883-1.833
		C244.832,244.608,244.506,245.028,243.726,245.797"/>
	<g>
		<path fill="#FFFFFF" d="M582.678,263.952c7.57,0,5.144,1.194,6.794-8.434l2.615-19.344c0.438-2.734,1.101-6.869,1.101-9.84
			c1.641,1.188,8.097,15.402,9.849,18.938c0.899,1.846,1.551,2.828,2.414,4.931c0.864,1.857,1.525,3.258,2.439,4.892
			c6.331,12.687,5.58,11.286,11.161,0.23l9.508-19.262c0.677-1.527,3.854-8.54,4.932-9.728c0,2.854,0.774,6.543,1.226,9.84
			l3.379,24.274c0.538,4.067,0.438,3.503,5.943,3.503c3.054,0,0.626-9.848,0-13.557c-0.889-4.818-1.238-10.079-2.09-14.745
			l-4.278-29.21h-2.528c-0.551,2.197-8.532,17.379-10.848,22.198c-0.864,2.077-1.514,3.284-2.516,5.366
			c-1.65,3.265-6.895,15.096-8.658,16.392c-0.649-2.498-3.941-8.416-5.154-11.055l-11.061-22.416
			c-0.978-1.951-1.854-3.598-2.841-5.562c-2.289-4.617-1.652-4.923-5.042-4.923c0,2.283-6.345,47.114-7.107,51.487
			C581.564,260.248,580.038,263.952,582.678,263.952"/>
		<path fill="#FFFFFF" d="M845.144,257.733c-5.254,0-10.396-0.55-14.562-3.841c-4.054-3.203-2.202-1.514-5.256-5.143
			c-8.883-10.823-5.229-36.528,19.269-36.528c15.24,0,25.978,18.066,19.722,31.743C861.059,251.252,853.902,257.733,845.144,257.733
			 M813.138,232.558L813.138,232.558c0,11.299,2.202,17.837,10.085,25.037c11.523,10.417,30.029,9.76,41.216-0.519
			c8.434-7.775,8.982-15.746,8.982-25.493c0-10.267-8.783-20.126-18.092-24.381C834.959,198.008,813.138,215.173,813.138,232.558"/>
		<path fill="#FFFFFF" d="M546.08,257.702c-8.008,0-12.462-1.069-18.294-6.863c-10.06-10.396-8.008-28.972,6.032-36.197
			c6.131-3.185,13.463-3.185,19.719-0.55c13.913,6.005,17.643,26.032,7.582,36.203C557.565,253.798,552.773,257.702,546.08,257.702
			 M541.788,265.065L541.788,265.065c8.358,0,12.824-0.576,19.856-5.399c2.952-1.964,5.13-3.81,7.231-6.856
			c17.729-25.513-8.884-57.963-37.475-45.294c-3.392,1.44-6.905,4.167-9.422,6.774c-0.101,0.125-0.775,1.008-0.977,1.102
			c-7.132,8.333-9.108,20.245-5.017,31.073c2.063,5.231,5.43,9.071,9.509,12.469C529.2,261.957,536.57,265.065,541.788,265.065"/>
		<path fill="#FFFFFF" d="M706.348,305.298h-12.05V288.57c9.209,0,21.146-1.959,21.696,7.957
			C716.307,302.309,712.365,305.298,706.348,305.298 M686.954,282.758L686.954,282.758v54.445c0,2.09,1.639,1.553,5.806,1.553
			c2.515,0,1.538-7.443,1.538-12.601c0-3.892-0.899-10.571,0.575-13.552c2.065,0.252,0.727-0.087,1.854,0.777
			c0.088,0.125,1.177,1.626,1.301,1.752c4.278,5.905,11.61,14.662,15.991,20.669c2.752,3.703,1.663,2.953,9.084,2.953
			c2.514,0,1.126-1.827,0.323-2.828c-0.851-1.327-1.65-2.215-2.502-3.291l-12.6-16.202c-0.989-1.178-2.09-2.276-2.527-3.829
			c9.421,0,17.88-5.117,17.88-13.55c0-6.357,0.087-9.635-5.942-14.547c-5.368-4.36-21.334-3.277-29.241-3.277
			C687.278,281.23,686.954,281.562,686.954,282.758"/>
		<path fill="#FFFFFF" d="M450.762,233.685c0,10.461,2.647,16.518,8.333,22.404c12.274,12.881,38.02,12.043,48.197-3.066
			c-1.103-1.207-4.054-3.721-5.782-4.135c-2.651,1.613-3.627,3.81-6.793,5.662c-13.812,7.989-36.154,1.739-36.154-19.901
			c0-3.252,0.857-6.562,1.965-8.964c0.77-1.958,3.078-5.156,4.491-6.544c8.196-8.877,24.53-9.359,32.764-1.126
			c1.312,1.401,2.276,2.621,3.728,3.627c1.729-0.561,4.255-2.626,5.782-3.734c-2.278-4.242-5.782-6.968-9.985-9.377
			C478.82,197.788,450.762,210.388,450.762,233.685"/>
		<path fill="#FFFFFF" d="M757.184,294.787c1.201,5.568,6.043,11.812,7.346,17.243h-15.777c1.526-2.702,2.527-5.432,3.928-8.597
			c0.776-1.526,1.34-2.615,1.979-4.256c0.426-0.869,0.576-1.42,1.014-2.208C756.083,296.008,756.309,295.471,757.184,294.787
			 M730.434,338.756L730.434,338.756c8.232,0,5.58,0.976,8.009-3.94c0.899-1.827,1.426-3.165,2.302-5.144
			c0.888-1.964,4.054-8.209,4.404-9.734h22.996c1.64,3.092,2.979,6.219,4.479,9.659c1.001,1.827,1.538,3.278,2.303,5.004
			c2.302,4.905,1.427,4.155,7.882,4.155c3.19,0,0.551-3.504-0.751-6.582c-0.976-2.502-2.302-5.229-3.401-7.558
			c-2.528-4.754-14.891-32.894-16.979-37.91l-3.503-7.578h-3.091c-0.201,2.315-12.012,26.696-13.451,30.074
			c-2.864,6.919-7.568,16.215-10.196,22.672C730.795,333.501,727.056,338.756,730.434,338.756"/>
		<path fill="#FFFFFF" d="M450.762,308.464c0,18.38,12.395,31.368,28.815,31.368c11.619,0,20.821-1.752,27.716-12.012
			c-1.103-0.777-1.527-1.327-2.641-2.09c-0.413-0.313-0.639-0.553-1.188-0.964c-0.551-0.477-0.977-0.774-1.414-1.075
			c-1.552,0.949-2.202,1.9-3.629,3.151c-15.877,12.888-39.856,4.58-39.856-17.404c0-22.827,31.205-30.065,42.946-12.468
			c2.078-1.396,3.817-2.947,5.782-4.273c-7.232-13.63-33.095-18.328-47.309-4.742C455.36,292.273,450.762,299.691,450.762,308.464"
			/>
		<path fill="#FFFFFF" d="M736.701,262.413c0,1.233,0.438,1.539,1.64,1.539h30.33c2.202,0,1.525-1.77,1.525-6.219
			c0-1.239-0.3-1.645-1.525-1.645h-24.648v-19.783h26.175c0-5.148,0.789-7.351-1.525-7.351h-24.648v-15.202h26.175
			c0.476-1.615,1.89-7.313-0.977-7.313h-32.52L736.701,262.413L736.701,262.413z"/>
		<path fill="#FFFFFF" d="M882.83,379.544c0-19.367,23.099-26.55,34.484-14.588c15.164,16.24-1.063,41.591-22.248,33.282
			c-2.702-1.104-4.229-2.527-6.094-4.354c-1.764-1.878-3.052-3.179-4.167-5.817C883.932,386.177,882.83,382.073,882.83,379.544
			 M876.037,378.569L876.037,378.569c0,16.402,12.386,27.649,24.636,27.649c8.896,0,15.028-1.076,21.596-7.656
			c8.233-8.184,10.099-20.995,5.144-31.03c-0.751-1.425-1.313-2.652-2.29-3.952l-3.29-3.518
			C903.325,342.81,876.037,357.374,876.037,378.569"/>
		<path fill="#FFFFFF" d="M516.701,321.039c0,11.359,7.707,18.793,17.316,18.793c7.569,0,12.938-0.539,17.893-7.759
			c2.828-4.153,3.578-11.147,3.578-17.916v-31.399c0-2.208-1.838-1.527-6.307-1.527c-2.352,0-1.552,3.734-1.552,6.226
			c0.088,8.017,0.951,34.584-1.438,39.488c-3.941,7.958-16.643,7.958-20.597,0.324c-2.64-5.229-1.525-23.723-1.525-30.82v-8.416
			c0-7.683,1.427-6.802-7.369-6.802V321.039z"/>
		<path fill="#FFFFFF" d="M495.8,405.27h6.801v-35.585c1.864,0.677,14.326,15.665,16.078,17.845l6.043,6.529
			c1.664,1.878,8.42,11.211,10.284,11.211h1.665v-51.324h-6.807v35.561c-2.165-1.438-2.402-2.403-4.154-4.268l-25.312-29.092
			c-1.979-2.326-0.427-2.201-4.6-2.201L495.8,405.27L495.8,405.27z"/>
		<path fill="#FFFFFF" d="M636.116,318.962c0,6.905,1.001,10.635,4.28,14.539c6.905,8.295,22.771,9.058,30.466-0.352
			c2.841-3.554,4.042-9.497,4.042-15.827v-34.564c0-2.208-2.202-1.527-7.332-1.527c0,7.99,0.775,36.769-0.776,42.66
			c-3.266,13.113-23.348,12.677-23.348-4.504V281.23h-7.332V318.962L636.116,318.962z"/>
		<path fill="#FFFFFF" d="M664.944,375.365h-9.959v-15.188h6.77c6.155,0,12.599,1.325,12.599,7.355
			C674.354,372.963,670.399,375.365,664.944,375.365 M648.19,403.594L648.19,403.594c0,2.303,1.964,1.676,6.795,1.676v-23.136h2.051
			c0.526,1.99,13.589,18.081,15.554,20.708c2.314,3.292,2.652,2.428,9.646,2.428c-0.2-2.325-1.427-2.777-3.93-6.055
			c-1.65-2.079-2.728-3.705-4.278-5.682c-1.089-1.189-8.221-9.974-8.559-11.399c4.404-0.312,8.357-1.312,11.085-3.451
			c7.634-5.932,7.332-24.712-11.085-24.712H648.19V403.594z"/>
		<path fill="#FFFFFF" d="M838.362,375.378h-10.534v-15.201c8.318,0,18.854-1.076,18.854,7.882
			C846.683,373.314,842.516,375.378,838.362,375.378 M821.059,405.27L821.059,405.27c8.857,0,6.771,3.579,6.771-23.097
			c2.426,0.188,2.978,1.979,5.367,5.154c1.551,2.178,2.952,3.816,4.492,5.881c2.552,3.404,7.354,8.746,8.994,12.062h8.446
			c-0.552-1.774-7.23-9.858-8.56-11.359l-8.759-11.736c21.021-0.45,22.348-28.229-0.562-28.229h-16.19V405.27z"/>
		<path fill="#FFFFFF" d="M673.402,230.489h-11.085v-16.735c5.681,0,21.471-1.751,21.471,6.775
			C683.788,227.541,681.048,230.489,673.402,230.489 M654.985,262.413L654.985,262.413c0,2.103,1.627,1.539,5.779,1.539
			c1.228,0,1.553-0.306,1.553-1.539v-24.612c6.557,0,10.51,0.34,16.967-0.757c17.741-3.04,16.54-30.604-4.38-30.604h-19.919V262.413
			z"/>
		<path fill="#FFFFFF" d="M789.604,366.508h1.089c0.324,1.65,5.055,12.136,6.256,14.688h-13.589
			C784.135,377.567,788.714,370.136,789.604,366.508 M764.966,405.27L764.966,405.27h7.332l5.48-12.411
			c0.765-1.714,1.4-2.614,1.863-4.329h21.021c0.112,1.978,0.764,2.702,1.563,4.13c0.75,1.399,1.063,2.752,1.854,4.378l3.814,8.232
			h6.896c-0.338-2.978-1.652-4.729-2.616-6.818l-11.836-26.463c-0.863-2.178-1.864-4.578-2.84-6.557
			c-1.102-2.075-5.58-11.774-5.817-13.562h-3.042c-0.675,2.752-12.937,28.953-14.688,32.907c-0.551,1.126-1.126,2.113-1.652,3.164
			c-0.55,1.34-0.875,2.439-1.538,3.615c-1.076,2.202-1.864,4.205-2.939,6.606C766.931,400.115,765.191,403.143,764.966,405.27"/>
		<path fill="#FFFFFF" d="M611.056,403.594c0,1.201,0.312,1.676,1.538,1.676h27.251c2.104,0,1.554-1.525,1.554-5.278
			c0-1.227-0.326-1.54-1.554-1.54h-22.008v-17.78h23.562v-6.279h-23.562v-14.214h23.562v-6.206h-30.343V403.594z"/>
		<path fill="#FFFFFF" d="M450.762,386.89c0,7.732,1.978,14.052,8.333,17.254c4.711,2.504,6.481,2.076,11.505,2.076
			c7.67,0,14.684-7.655,14.684-17.69v-34.584c-8.546,0-6.807-1.988-6.807,12.562c0,5.581,0.906,24.147-1.184,28.002
			c-4.61,8.435-19.725,8.107-19.725-6.569v-33.995h-6.808L450.762,386.89L450.762,386.89z"/>
		<path fill="#FFFFFF" d="M688.054,364.481c0,7.293,4.38,10.81,9.322,14.625c4.93,3.842,11.048,7.106,11.048,14.074
			c0,4.507-8.22,10.562-14.677,3.066c-1.176-1.414-2.401-3.666-3.604-4.692c-2.201,0.651-3.188,2.129-5.267,2.629
			c0.213,2.527,3.277,6.455,5.041,7.995c6.021,5.354,15.34,6.019,21.784-0.438c8.106-8.059,3.303-18.183-5.242-24.374
			c-2.402-1.878-4.504-3.328-6.782-5.279c-6.692-5.683-6.832-12.339,2.503-12.339c3.291,0,5.48,4.143,7.783,5.682
			c1.978-0.552,2.526-1.739,5.254-3.604c-6.229-9.384-16.09-12.787-23.21-5.905C690.144,357.773,688.054,360.853,688.054,364.481"/>
		<path fill="#FFFFFF" d="M580.15,406.22h2.526c2.09-4.152,3.392-8.53,5.468-12.886c4.806-10.286,9.311-22.122,13.913-32.607
			c0.978-2.076,2.077-4.366,2.63-6.781h-7.333c-0.552,2.652-10.411,25.262-11.861,28.415c-0.727,1.791-1.177,2.989-1.939,4.831
			c-0.664,1.649-1.237,3.465-2.415,4.364c-0.226-2.176-2.753-7.404-3.629-9.383l-7.658-18.519c-1.188-3.004-3.177-6.756-3.952-9.71
			h-7.308c0.639,2.528,1.502,3.94,2.479,6.48c1.039,2.354,1.901,4.255,2.752,6.656c1.776,4.255,3.504,8.508,5.468,12.889
			C570.278,382.173,579.611,404.144,580.15,406.22"/>
		<path fill="#FFFFFF" d="M700.554,207.966v53.896c0,1.22,0.876,2.077,2.064,2.077c6.27,0,22.235,0.668,27.289-0.563
			c0-8.602,3.629-6.743-21.483-6.743V206.44C703.056,206.44,700.554,205.702,700.554,207.966"/>
		<path fill="#FFFFFF" d="M597.354,287.055c0,2.621,5.256,1.516,12.6,1.516v48.634c0,2.09,1.652,1.553,5.818,1.553
			c1.177,0,1.514-0.324,1.514-1.553V288.57c14.564,0,12.601,1.537,12.601-5.812c0-1.195-0.426-1.527-1.639-1.527h-30.894V287.055z"
			/>
		<path fill="#FFFFFF" d="M567,282.758v54.445c0,1.229,0.325,1.553,1.552,1.553h25.712c2.215,0,1.553-2.188,1.553-7.332h-20.907
			v-48.666c0-2.208-1.877-1.527-6.356-1.527C567.325,281.23,567,281.562,567,282.758"/>
		<path fill="#FFFFFF" d="M791.142,337.229c0,1.202,0.438,1.526,1.64,1.526h25.612c2.34,0,1.576-2.215,1.576-7.332h-19.856
			c-1.188,0-1.64-0.312-1.64-1.553v-48.64h-7.332V337.229z"/>
		<path fill="#FFFFFF" d="M796.396,246.68c0,7.87-1.526,11.022-7.356,11.022c-5.243,0-7.433-4.347-11.487-4.68
			c-0.324,1.414-0.662,1.414-1.426,2.739c-0.763,1.208-1.101,1.833-1.739,2.935c2.065,1.446,3.729,2.865,5.895,4.085
			c6.229,3.26,16.114,3.446,20.382-2.428c1.989-2.846,3.064-6.557,3.064-11.498V206.44h-7.332V246.68L796.396,246.68z"/>
		<path fill="#FFFFFF" d="M735.163,360.177h10.948v45.093h6.78v-43.417c0-2.677,4.492-1.676,11.637-1.676
			c0-4.368,0.538-6.206-1.641-6.206h-27.726L735.163,360.177L735.163,360.177z"/>
		<rect x="861.923" y="353.944" fill="#FFFFFF" width="6.818" height="51.288"/>
		<path fill="#FFFFFF" d="M723.677,403.594c0,1.201,0.3,1.676,1.526,1.676h5.229v-51.299h-6.757L723.677,403.594L723.677,403.594z"
			/>
		<rect x="546.618" y="353.944" fill="#FFFFFF" width="6.244" height="51.288"/>
	</g>
</g>
</svg>
