<?xml version="1.0" encoding="utf-8"?>
<!-- Generator: Adobe Illustrator 16.0.0, SVG Export Plug-In . SVG Version: 6.00 Build 0)  -->
<!DOCTYPE svg PUBLIC "-//W3C//DTD SVG 1.1//EN" "http://www.w3.org/Graphics/SVG/1.1/DTD/svg11.dtd">
<svg version="1.1" id="Layer_1" xmlns="http://www.w3.org/2000/svg" xmlns:xlink="http://www.w3.org/1999/xlink" x="0px" y="0px"
	 width="960px" height="560px" viewBox="0 0 960 560" enable-background="new 0 0 960 560" xml:space="preserve">
<g>
	<path fill="#FFFFFF" stroke="#000000" stroke-miterlimit="10" d="M690.5,522c0,20.987-17.014,38-38,38h-292
		c-20.987,0-38-17.013-38-38V79.5c0-20.987,17.013-38,38-38h292c20.986,0,38,17.013,38,38V522z"/>
	<path fill="#475993" d="M684.536,0H275.464c-41.675,0-75.461,33.785-75.461,75.461v409.075c0,41.677,33.784,75.461,75.461,75.461
		h201.753l0.344-200.112h-51.989c-6.757,0-12.24-5.464-12.267-12.22l-0.249-64.505c-0.026-6.793,5.474-12.314,12.268-12.314h51.895
		v-62.328c0-72.331,44.175-111.716,108.699-111.716h52.946c6.774,0,12.268,5.492,12.268,12.268v54.391
		c0,6.773-5.489,12.263-12.261,12.268l-32.492,0.015c-35.091,0-41.885,16.674-41.885,41.145v53.959h77.104
		c7.347,0,13.047,6.415,12.182,13.711l-7.646,64.505c-0.731,6.173-5.966,10.824-12.182,10.824h-69.115L564.493,560h120.046
		c41.675,0,75.459-33.784,75.459-75.46V75.461C759.997,33.785,726.213,0,684.536,0z"/>
</g>
</svg>
